<?xml version="1.0" encoding="utf-8" standalone="no"?>
<!DOCTYPE svg PUBLIC "-//W3C//DTD SVG 1.1//EN"
  "http://www.w3.org/Graphics/SVG/1.1/DTD/svg11.dtd">
<svg xmlns:xlink="http://www.w3.org/1999/xlink" width="475.2pt" height="475.2pt" viewBox="0 0 475.2 475.2" xmlns="http://www.w3.org/2000/svg" version="1.1">
 <metadata>
  <rdf:RDF xmlns:dc="http://purl.org/dc/elements/1.1/" xmlns:cc="http://creativecommons.org/ns#" xmlns:rdf="http://www.w3.org/1999/02/22-rdf-syntax-ns#">
   <cc:Work>
    <dc:type rdf:resource="http://purl.org/dc/dcmitype/StillImage"/>
    <dc:date>2025-07-26T17:33:16.132138</dc:date>
    <dc:format>image/svg+xml</dc:format>
    <dc:creator>
     <cc:Agent>
      <dc:title>Matplotlib v3.10.0, https://matplotlib.org/</dc:title>
     </cc:Agent>
    </dc:creator>
   </cc:Work>
  </rdf:RDF>
 </metadata>
 <defs>
  <style type="text/css">*{stroke-linejoin: round; stroke-linecap: butt}</style>
 </defs>
 <g id="figure_1">
  <g id="patch_1">
   <path d="M 0 475.2 
L 475.2 475.2 
L 475.2 0 
L 0 0 
L 0 475.2 
z
" style="fill: none"/>
  </g>
  <g id="patch_2">
   <path d="M 7.2 468 
L 468 468 
L 468 7.2 
L 7.2 7.2 
L 7.2 468 
z
" style="fill: none"/>
  </g>
  <g id="axes_1">
   <g id="line2d_1">
    <path d="M 110.954725 156.759242 
L 95.979253 163.023597 
" clip-path="url(#p30c751b022)" style="fill: none; stroke-dasharray: 3.7,1.6; stroke-dashoffset: 0; stroke: #000000"/>
   </g>
   <g id="line2d_2">
    <path d="M 95.979253 163.023597 
L 105.851128 165.298367 
" clip-path="url(#p30c751b022)" style="fill: none; stroke-dasharray: 3.7,1.6; stroke-dashoffset: 0; stroke: #000000"/>
   </g>
   <g id="line2d_3">
    <path d="M 105.851128 165.298367 
L 120.792961 159.000093 
" clip-path="url(#p30c751b022)" style="fill: none; stroke-dasharray: 3.7,1.6; stroke-dashoffset: 0; stroke: #000000"/>
   </g>
   <g id="line2d_4">
    <path d="M 120.792961 159.000093 
L 110.954725 156.759242 
" clip-path="url(#p30c751b022)" style="fill: none; stroke-dasharray: 3.7,1.6; stroke-dashoffset: 0; stroke: #000000"/>
   </g>
   <g id="line2d_5">
    <path d="M 110.665146 141.68219 
L 95.654606 147.846528 
" clip-path="url(#p30c751b022)" style="fill: none; stroke-dasharray: 3.7,1.6; stroke-dashoffset: 0; stroke: #000000"/>
   </g>
   <g id="line2d_6">
    <path d="M 95.654606 147.846528 
L 105.547333 150.085028 
" clip-path="url(#p30c751b022)" style="fill: none; stroke-dasharray: 3.7,1.6; stroke-dashoffset: 0; stroke: #000000"/>
   </g>
   <g id="line2d_7">
    <path d="M 105.547333 150.085028 
L 120.5241 143.88724 
" clip-path="url(#p30c751b022)" style="fill: none; stroke-dasharray: 3.7,1.6; stroke-dashoffset: 0; stroke: #000000"/>
   </g>
   <g id="line2d_8">
    <path d="M 120.5241 143.88724 
L 110.665146 141.68219 
" clip-path="url(#p30c751b022)" style="fill: none; stroke-dasharray: 3.7,1.6; stroke-dashoffset: 0; stroke: #000000"/>
   </g>
   <g id="line2d_9">
    <path d="M 110.954725 156.759242 
L 110.665146 141.68219 
" clip-path="url(#p30c751b022)" style="fill: none; stroke-dasharray: 3.7,1.6; stroke-dashoffset: 0; stroke: #000000"/>
   </g>
   <g id="line2d_10">
    <path d="M 95.979253 163.023597 
L 95.654606 147.846528 
" clip-path="url(#p30c751b022)" style="fill: none; stroke-dasharray: 3.7,1.6; stroke-dashoffset: 0; stroke: #000000"/>
   </g>
   <g id="line2d_11">
    <path d="M 105.851128 165.298367 
L 105.547333 150.085028 
" clip-path="url(#p30c751b022)" style="fill: none; stroke-dasharray: 3.7,1.6; stroke-dashoffset: 0; stroke: #000000"/>
   </g>
   <g id="line2d_12">
    <path d="M 120.792961 159.000093 
L 120.5241 143.88724 
" clip-path="url(#p30c751b022)" style="fill: none; stroke-dasharray: 3.7,1.6; stroke-dashoffset: 0; stroke: #000000"/>
   </g>
   <g id="line2d_13">
    <path d="M 280.063467 186.405864 
L 210.671647 292.29025 
" clip-path="url(#p30c751b022)" style="fill: none; stroke-dasharray: 3.7,1.6; stroke-dashoffset: 0; stroke: #000000"/>
   </g>
   <g id="line2d_14">
    <path d="M 280.063467 186.405864 
L 279.170569 356.142426 
" clip-path="url(#p30c751b022)" style="fill: none; stroke-dasharray: 3.7,1.6; stroke-dashoffset: 0; stroke: #000000"/>
   </g>
   <g id="line2d_15">
    <path d="M 279.170569 356.142426 
L 210.671647 292.29025 
" clip-path="url(#p30c751b022)" style="fill: none; stroke-dasharray: 3.7,1.6; stroke-dashoffset: 0; stroke: #000000"/>
   </g>
   <g id="line2d_16">
    <path d="M 323.285853 368.050218 
L 152.667066 321.996043 
" clip-path="url(#p30c751b022)" style="fill: none; stroke-dasharray: 3.7,1.6; stroke-dashoffset: 0; stroke: #000000"/>
   </g>
   <g id="line2d_17">
    <path d="M 279.170569 356.142426 
L 370.686403 304.301746 
" clip-path="url(#p30c751b022)" style="fill: none; stroke-dasharray: 3.7,1.6; stroke-dashoffset: 0; stroke: #000000"/>
   </g>
   <g id="line2d_18">
    <path d="M 108.267807 153.442843 
L 247.458861 273.450474 
" clip-path="url(#p30c751b022)" style="fill: none; stroke-dasharray: 3.7,1.6; stroke-dashoffset: 0; stroke: #000000"/>
   </g>
   <g id="line2d_19">
    <path d="M 108.267807 153.442843 
L 247.55389 95.488951 
" clip-path="url(#p30c751b022)" style="fill: none; stroke-dasharray: 3.7,1.6; stroke-dashoffset: 0; stroke: #000000"/>
   </g>
   <g id="line2d_20">
    <path d="M 66.471541 143.953893 
L 194.834173 173.09589 
" clip-path="url(#p30c751b022)" style="fill: none; stroke-dasharray: 3.7,1.6; stroke-dashoffset: 0; stroke: #000000"/>
   </g>
   <g id="line2d_21">
    <path d="M 108.267807 153.442843 
L 111.977153 342.834502 
" clip-path="url(#p30c751b022)" style="fill: none; stroke-dasharray: 3.7,1.6; stroke-dashoffset: 0; stroke: #000000"/>
   </g>
   <g id="Poly3DCollection_1">
    <path d="M 249.127544 262.351882 
L 258.403072 264.645926 
L 258.374256 278.109166 
L 249.117091 275.786849 
z
" clip-path="url(#p30c751b022)" style="fill: #ff0000; fill-opacity: 0.3; stroke: #000000; stroke-width: 2"/>
    <path d="M 249.117091 275.786849 
L 236.488545 282.276023 
L 236.473945 268.762109 
L 249.127544 262.351882 
z
" clip-path="url(#p30c751b022)" style="fill: #ff0000; fill-opacity: 0.3; stroke: #000000; stroke-width: 2"/>
    <path d="M 249.117091 275.786849 
L 236.488545 282.276023 
L 245.777982 284.630181 
L 258.374256 278.109166 
z
" clip-path="url(#p30c751b022)" style="fill: #ff0000; fill-opacity: 0.3; stroke: #000000; stroke-width: 2"/>
    <path d="M 249.127544 262.351882 
L 236.473945 268.762109 
L 245.781873 271.087669 
L 258.403072 264.645926 
z
" clip-path="url(#p30c751b022)" style="fill: #ff0000; fill-opacity: 0.3; stroke: #000000; stroke-width: 2"/>
    <path d="M 245.777982 284.630181 
L 258.374256 278.109166 
L 258.403072 264.645926 
L 245.781873 271.087669 
z
" clip-path="url(#p30c751b022)" style="fill: #ff0000; fill-opacity: 0.3; stroke: #000000; stroke-width: 2"/>
    <path d="M 236.488545 282.276023 
L 245.777982 284.630181 
L 245.781873 271.087669 
L 236.473945 268.762109 
z
" clip-path="url(#p30c751b022)" style="fill: #ff0000; fill-opacity: 0.3; stroke: #000000; stroke-width: 2"/>
   </g>
   <g id="text_1">
    <!-- Object (point O) -->
    <g transform="translate(283.185851 249.138468) scale(0.16 -0.16)">
     <defs>
      <path id="TimesNewRomanPSMT-4f" d="M 2341 4334 
Q 3166 4334 3770 3707 
Q 4375 3081 4375 2144 
Q 4375 1178 3765 540 
Q 3156 -97 2291 -97 
Q 1416 -97 820 525 
Q 225 1147 225 2134 
Q 225 3144 913 3781 
Q 1509 4334 2341 4334 
z
M 2281 4106 
Q 1713 4106 1369 3684 
Q 941 3159 941 2147 
Q 941 1109 1384 550 
Q 1725 125 2284 125 
Q 2881 125 3270 590 
Q 3659 1056 3659 2059 
Q 3659 3147 3231 3681 
Q 2888 4106 2281 4106 
z
" transform="scale(0.015625)"/>
      <path id="TimesNewRomanPSMT-62" d="M 984 2369 
Q 1400 2947 1881 2947 
Q 2322 2947 2650 2570 
Q 2978 2194 2978 1541 
Q 2978 778 2472 313 
Q 2038 -88 1503 -88 
Q 1253 -88 995 3 
Q 738 94 469 275 
L 469 3241 
Q 469 3728 445 3840 
Q 422 3953 372 3993 
Q 322 4034 247 4034 
Q 159 4034 28 3984 
L -16 4094 
L 844 4444 
L 984 4444 
L 984 2369 
z
M 984 2169 
L 984 456 
Q 1144 300 1314 220 
Q 1484 141 1663 141 
Q 1947 141 2192 453 
Q 2438 766 2438 1363 
Q 2438 1913 2192 2208 
Q 1947 2503 1634 2503 
Q 1469 2503 1303 2419 
Q 1178 2356 984 2169 
z
" transform="scale(0.015625)"/>
      <path id="TimesNewRomanPSMT-6a" d="M 925 4447 
Q 1059 4447 1153 4353 
Q 1247 4259 1247 4125 
Q 1247 3994 1153 3900 
Q 1059 3806 925 3806 
Q 794 3806 700 3900 
Q 606 3994 606 4125 
Q 606 4259 700 4353 
Q 794 4447 925 4447 
z
M 1194 2947 
L 1194 66 
Q 1194 -669 881 -1025 
Q 569 -1381 69 -1381 
Q -216 -1381 -353 -1278 
Q -491 -1175 -491 -1066 
Q -491 -956 -414 -878 
Q -338 -800 -234 -800 
Q -153 -800 -69 -841 
Q -16 -863 136 -998 
Q 288 -1134 391 -1134 
Q 466 -1134 537 -1076 
Q 609 -1019 643 -883 
Q 678 -747 678 -294 
L 678 1744 
Q 678 2216 650 2350 
Q 628 2453 581 2492 
Q 534 2531 453 2531 
Q 366 2531 241 2484 
L 197 2597 
L 1059 2947 
L 1194 2947 
z
" transform="scale(0.015625)"/>
      <path id="TimesNewRomanPSMT-65" d="M 681 1784 
Q 678 1147 991 784 
Q 1303 422 1725 422 
Q 2006 422 2214 576 
Q 2422 731 2563 1106 
L 2659 1044 
Q 2594 616 2278 264 
Q 1963 -88 1488 -88 
Q 972 -88 605 314 
Q 238 716 238 1394 
Q 238 2128 614 2539 
Q 991 2950 1559 2950 
Q 2041 2950 2350 2633 
Q 2659 2316 2659 1784 
L 681 1784 
z
M 681 1966 
L 2006 1966 
Q 1991 2241 1941 2353 
Q 1863 2528 1708 2628 
Q 1553 2728 1384 2728 
Q 1125 2728 920 2526 
Q 716 2325 681 1966 
z
" transform="scale(0.015625)"/>
      <path id="TimesNewRomanPSMT-63" d="M 2631 1088 
Q 2516 522 2178 217 
Q 1841 -88 1431 -88 
Q 944 -88 581 321 
Q 219 731 219 1428 
Q 219 2103 620 2525 
Q 1022 2947 1584 2947 
Q 2006 2947 2278 2723 
Q 2550 2500 2550 2259 
Q 2550 2141 2473 2067 
Q 2397 1994 2259 1994 
Q 2075 1994 1981 2113 
Q 1928 2178 1911 2362 
Q 1894 2547 1784 2644 
Q 1675 2738 1481 2738 
Q 1169 2738 978 2506 
Q 725 2200 725 1697 
Q 725 1184 976 792 
Q 1228 400 1656 400 
Q 1963 400 2206 609 
Q 2378 753 2541 1131 
L 2631 1088 
z
" transform="scale(0.015625)"/>
      <path id="TimesNewRomanPSMT-74" d="M 1031 3803 
L 1031 2863 
L 1700 2863 
L 1700 2644 
L 1031 2644 
L 1031 788 
Q 1031 509 1111 412 
Q 1191 316 1316 316 
Q 1419 316 1516 380 
Q 1613 444 1666 569 
L 1788 569 
Q 1678 263 1478 108 
Q 1278 -47 1066 -47 
Q 922 -47 784 33 
Q 647 113 581 261 
Q 516 409 516 719 
L 516 2644 
L 63 2644 
L 63 2747 
Q 234 2816 414 2980 
Q 594 3144 734 3369 
Q 806 3488 934 3803 
L 1031 3803 
z
" transform="scale(0.015625)"/>
      <path id="TimesNewRomanPSMT-20" transform="scale(0.015625)"/>
      <path id="TimesNewRomanPSMT-28" d="M 1988 -1253 
L 1988 -1369 
Q 1516 -1131 1200 -813 
Q 750 -359 506 256 
Q 263 872 263 1534 
Q 263 2503 741 3301 
Q 1219 4100 1988 4444 
L 1988 4313 
Q 1603 4100 1356 3731 
Q 1109 3363 987 2797 
Q 866 2231 866 1616 
Q 866 947 969 400 
Q 1050 -31 1165 -292 
Q 1281 -553 1476 -793 
Q 1672 -1034 1988 -1253 
z
" transform="scale(0.015625)"/>
      <path id="TimesNewRomanPSMT-70" d="M -6 2578 
L 875 2934 
L 994 2934 
L 994 2266 
Q 1216 2644 1439 2795 
Q 1663 2947 1909 2947 
Q 2341 2947 2628 2609 
Q 2981 2197 2981 1534 
Q 2981 794 2556 309 
Q 2206 -88 1675 -88 
Q 1444 -88 1275 -22 
Q 1150 25 994 166 
L 994 -706 
Q 994 -1000 1030 -1079 
Q 1066 -1159 1155 -1206 
Q 1244 -1253 1478 -1253 
L 1478 -1369 
L -22 -1369 
L -22 -1253 
L 56 -1253 
Q 228 -1256 350 -1188 
Q 409 -1153 442 -1076 
Q 475 -1000 475 -688 
L 475 2019 
Q 475 2297 450 2372 
Q 425 2447 370 2484 
Q 316 2522 222 2522 
Q 147 2522 31 2478 
L -6 2578 
z
M 994 2081 
L 994 1013 
Q 994 666 1022 556 
Q 1066 375 1236 237 
Q 1406 100 1666 100 
Q 1978 100 2172 344 
Q 2425 663 2425 1241 
Q 2425 1897 2138 2250 
Q 1938 2494 1663 2494 
Q 1513 2494 1366 2419 
Q 1253 2363 994 2081 
z
" transform="scale(0.015625)"/>
      <path id="TimesNewRomanPSMT-6f" d="M 1600 2947 
Q 2250 2947 2644 2453 
Q 2978 2031 2978 1484 
Q 2978 1100 2793 706 
Q 2609 313 2286 112 
Q 1963 -88 1566 -88 
Q 919 -88 538 428 
Q 216 863 216 1403 
Q 216 1797 411 2186 
Q 606 2575 925 2761 
Q 1244 2947 1600 2947 
z
M 1503 2744 
Q 1338 2744 1170 2645 
Q 1003 2547 900 2300 
Q 797 2053 797 1666 
Q 797 1041 1045 587 
Q 1294 134 1700 134 
Q 2003 134 2200 384 
Q 2397 634 2397 1244 
Q 2397 2006 2069 2444 
Q 1847 2744 1503 2744 
z
" transform="scale(0.015625)"/>
      <path id="TimesNewRomanPSMT-69" d="M 928 4444 
Q 1059 4444 1151 4351 
Q 1244 4259 1244 4128 
Q 1244 3997 1151 3903 
Q 1059 3809 928 3809 
Q 797 3809 703 3903 
Q 609 3997 609 4128 
Q 609 4259 701 4351 
Q 794 4444 928 4444 
z
M 1188 2947 
L 1188 647 
Q 1188 378 1227 289 
Q 1266 200 1342 156 
Q 1419 113 1622 113 
L 1622 0 
L 231 0 
L 231 113 
Q 441 113 512 153 
Q 584 194 626 287 
Q 669 381 669 647 
L 669 1750 
Q 669 2216 641 2353 
Q 619 2453 572 2492 
Q 525 2531 444 2531 
Q 356 2531 231 2484 
L 188 2597 
L 1050 2947 
L 1188 2947 
z
" transform="scale(0.015625)"/>
      <path id="TimesNewRomanPSMT-6e" d="M 1034 2341 
Q 1538 2947 1994 2947 
Q 2228 2947 2397 2830 
Q 2566 2713 2666 2444 
Q 2734 2256 2734 1869 
L 2734 647 
Q 2734 375 2778 278 
Q 2813 200 2889 156 
Q 2966 113 3172 113 
L 3172 0 
L 1756 0 
L 1756 113 
L 1816 113 
Q 2016 113 2095 173 
Q 2175 234 2206 353 
Q 2219 400 2219 647 
L 2219 1819 
Q 2219 2209 2117 2386 
Q 2016 2563 1775 2563 
Q 1403 2563 1034 2156 
L 1034 647 
Q 1034 356 1069 288 
Q 1113 197 1189 155 
Q 1266 113 1500 113 
L 1500 0 
L 84 0 
L 84 113 
L 147 113 
Q 366 113 442 223 
Q 519 334 519 647 
L 519 1709 
Q 519 2225 495 2337 
Q 472 2450 423 2490 
Q 375 2531 294 2531 
Q 206 2531 84 2484 
L 38 2597 
L 900 2947 
L 1034 2947 
L 1034 2341 
z
" transform="scale(0.015625)"/>
      <path id="TimesNewRomanPSMT-29" d="M 144 4313 
L 144 4444 
Q 619 4209 934 3891 
Q 1381 3434 1625 2820 
Q 1869 2206 1869 1541 
Q 1869 572 1392 -226 
Q 916 -1025 144 -1369 
L 144 -1253 
Q 528 -1038 776 -670 
Q 1025 -303 1145 264 
Q 1266 831 1266 1447 
Q 1266 2113 1163 2663 
Q 1084 3094 967 3353 
Q 850 3613 656 3853 
Q 463 4094 144 4313 
z
" transform="scale(0.015625)"/>
     </defs>
     <use xlink:href="#TimesNewRomanPSMT-4f"/>
     <use xlink:href="#TimesNewRomanPSMT-62" transform="translate(72.216797 0)"/>
     <use xlink:href="#TimesNewRomanPSMT-6a" transform="translate(122.216797 0)"/>
     <use xlink:href="#TimesNewRomanPSMT-65" transform="translate(150 0)"/>
     <use xlink:href="#TimesNewRomanPSMT-63" transform="translate(194.384766 0)"/>
     <use xlink:href="#TimesNewRomanPSMT-74" transform="translate(238.769531 0)"/>
     <use xlink:href="#TimesNewRomanPSMT-20" transform="translate(266.552734 0)"/>
     <use xlink:href="#TimesNewRomanPSMT-28" transform="translate(291.552734 0)"/>
     <use xlink:href="#TimesNewRomanPSMT-70" transform="translate(324.853516 0)"/>
     <use xlink:href="#TimesNewRomanPSMT-6f" transform="translate(374.853516 0)"/>
     <use xlink:href="#TimesNewRomanPSMT-69" transform="translate(424.853516 0)"/>
     <use xlink:href="#TimesNewRomanPSMT-6e" transform="translate(452.636719 0)"/>
     <use xlink:href="#TimesNewRomanPSMT-74" transform="translate(502.636719 0)"/>
     <use xlink:href="#TimesNewRomanPSMT-20" transform="translate(530.419922 0)"/>
     <use xlink:href="#TimesNewRomanPSMT-4f" transform="translate(555.419922 0)"/>
     <use xlink:href="#TimesNewRomanPSMT-29" transform="translate(627.636719 0)"/>
    </g>
    <!-- toward to point F -->
    <g transform="translate(280.729601 265.922968) scale(0.16 -0.16)">
     <defs>
      <path id="TimesNewRomanPSMT-77" d="M 41 2863 
L 1241 2863 
L 1241 2747 
Q 1075 2734 1023 2687 
Q 972 2641 972 2553 
Q 972 2456 1025 2319 
L 1638 672 
L 2253 2013 
L 2091 2434 
Q 2016 2622 1894 2694 
Q 1825 2738 1638 2747 
L 1638 2863 
L 3000 2863 
L 3000 2747 
Q 2775 2738 2681 2666 
Q 2619 2616 2619 2506 
Q 2619 2444 2644 2378 
L 3294 734 
L 3897 2319 
Q 3959 2488 3959 2588 
Q 3959 2647 3898 2694 
Q 3838 2741 3659 2747 
L 3659 2863 
L 4563 2863 
L 4563 2747 
Q 4291 2706 4163 2378 
L 3206 -88 
L 3078 -88 
L 2363 1741 
L 1528 -88 
L 1413 -88 
L 494 2319 
Q 403 2547 315 2626 
Q 228 2706 41 2747 
L 41 2863 
z
" transform="scale(0.015625)"/>
      <path id="TimesNewRomanPSMT-61" d="M 1822 413 
Q 1381 72 1269 19 
Q 1100 -59 909 -59 
Q 613 -59 420 144 
Q 228 347 228 678 
Q 228 888 322 1041 
Q 450 1253 767 1440 
Q 1084 1628 1822 1897 
L 1822 2009 
Q 1822 2438 1686 2597 
Q 1550 2756 1291 2756 
Q 1094 2756 978 2650 
Q 859 2544 859 2406 
L 866 2225 
Q 866 2081 792 2003 
Q 719 1925 600 1925 
Q 484 1925 411 2006 
Q 338 2088 338 2228 
Q 338 2497 613 2722 
Q 888 2947 1384 2947 
Q 1766 2947 2009 2819 
Q 2194 2722 2281 2516 
Q 2338 2381 2338 1966 
L 2338 994 
Q 2338 584 2353 492 
Q 2369 400 2405 369 
Q 2441 338 2488 338 
Q 2538 338 2575 359 
Q 2641 400 2828 588 
L 2828 413 
Q 2478 -56 2159 -56 
Q 2006 -56 1915 50 
Q 1825 156 1822 413 
z
M 1822 616 
L 1822 1706 
Q 1350 1519 1213 1441 
Q 966 1303 859 1153 
Q 753 1003 753 825 
Q 753 600 887 451 
Q 1022 303 1197 303 
Q 1434 303 1822 616 
z
" transform="scale(0.015625)"/>
      <path id="TimesNewRomanPSMT-72" d="M 1038 2947 
L 1038 2303 
Q 1397 2947 1775 2947 
Q 1947 2947 2059 2842 
Q 2172 2738 2172 2600 
Q 2172 2478 2090 2393 
Q 2009 2309 1897 2309 
Q 1788 2309 1652 2417 
Q 1516 2525 1450 2525 
Q 1394 2525 1328 2463 
Q 1188 2334 1038 2041 
L 1038 669 
Q 1038 431 1097 309 
Q 1138 225 1241 169 
Q 1344 113 1538 113 
L 1538 0 
L 72 0 
L 72 113 
Q 291 113 397 181 
Q 475 231 506 341 
Q 522 394 522 644 
L 522 1753 
Q 522 2253 501 2348 
Q 481 2444 426 2487 
Q 372 2531 291 2531 
Q 194 2531 72 2484 
L 41 2597 
L 906 2947 
L 1038 2947 
z
" transform="scale(0.015625)"/>
      <path id="TimesNewRomanPSMT-64" d="M 2222 322 
Q 2013 103 1813 7 
Q 1613 -88 1381 -88 
Q 913 -88 563 304 
Q 213 697 213 1313 
Q 213 1928 600 2439 
Q 988 2950 1597 2950 
Q 1975 2950 2222 2709 
L 2222 3238 
Q 2222 3728 2198 3840 
Q 2175 3953 2125 3993 
Q 2075 4034 2000 4034 
Q 1919 4034 1784 3984 
L 1744 4094 
L 2597 4444 
L 2738 4444 
L 2738 1134 
Q 2738 631 2761 520 
Q 2784 409 2836 365 
Q 2888 322 2956 322 
Q 3041 322 3181 375 
L 3216 266 
L 2366 -88 
L 2222 -88 
L 2222 322 
z
M 2222 541 
L 2222 2016 
Q 2203 2228 2109 2403 
Q 2016 2578 1861 2667 
Q 1706 2756 1559 2756 
Q 1284 2756 1069 2509 
Q 784 2184 784 1559 
Q 784 928 1059 592 
Q 1334 256 1672 256 
Q 1956 256 2222 541 
z
" transform="scale(0.015625)"/>
      <path id="TimesNewRomanPSMT-46" d="M 1309 4006 
L 1309 2341 
L 2081 2341 
Q 2347 2341 2470 2458 
Q 2594 2575 2634 2922 
L 2750 2922 
L 2750 1488 
L 2634 1488 
Q 2631 1734 2570 1850 
Q 2509 1966 2401 2023 
Q 2294 2081 2081 2081 
L 1309 2081 
L 1309 750 
Q 1309 428 1350 325 
Q 1381 247 1481 191 
Q 1619 116 1769 116 
L 1922 116 
L 1922 0 
L 103 0 
L 103 116 
L 253 116 
Q 516 116 634 269 
Q 709 369 709 750 
L 709 3488 
Q 709 3809 669 3913 
Q 638 3991 541 4047 
Q 406 4122 253 4122 
L 103 4122 
L 103 4238 
L 3256 4238 
L 3297 3306 
L 3188 3306 
Q 3106 3603 2998 3742 
Q 2891 3881 2733 3943 
Q 2575 4006 2244 4006 
L 1309 4006 
z
" transform="scale(0.015625)"/>
     </defs>
     <use xlink:href="#TimesNewRomanPSMT-74"/>
     <use xlink:href="#TimesNewRomanPSMT-6f" transform="translate(27.783203 0)"/>
     <use xlink:href="#TimesNewRomanPSMT-77" transform="translate(77.783203 0)"/>
     <use xlink:href="#TimesNewRomanPSMT-61" transform="translate(150 0)"/>
     <use xlink:href="#TimesNewRomanPSMT-72" transform="translate(194.384766 0)"/>
     <use xlink:href="#TimesNewRomanPSMT-64" transform="translate(227.685547 0)"/>
     <use xlink:href="#TimesNewRomanPSMT-20" transform="translate(277.685547 0)"/>
     <use xlink:href="#TimesNewRomanPSMT-74" transform="translate(302.685547 0)"/>
     <use xlink:href="#TimesNewRomanPSMT-6f" transform="translate(330.46875 0)"/>
     <use xlink:href="#TimesNewRomanPSMT-20" transform="translate(380.46875 0)"/>
     <use xlink:href="#TimesNewRomanPSMT-70" transform="translate(405.46875 0)"/>
     <use xlink:href="#TimesNewRomanPSMT-6f" transform="translate(455.46875 0)"/>
     <use xlink:href="#TimesNewRomanPSMT-69" transform="translate(505.46875 0)"/>
     <use xlink:href="#TimesNewRomanPSMT-6e" transform="translate(533.251953 0)"/>
     <use xlink:href="#TimesNewRomanPSMT-74" transform="translate(583.251953 0)"/>
     <use xlink:href="#TimesNewRomanPSMT-20" transform="translate(611.035156 0)"/>
     <use xlink:href="#TimesNewRomanPSMT-46" transform="translate(636.035156 0)"/>
    </g>
   </g>
   <g id="text_2">
    <!-- Current UAV (point A) -->
    <g transform="translate(270.493336 150.738418) scale(0.16 -0.16)">
     <defs>
      <path id="TimesNewRomanPSMT-43" d="M 3853 4334 
L 3950 2894 
L 3853 2894 
Q 3659 3541 3300 3825 
Q 2941 4109 2438 4109 
Q 2016 4109 1675 3895 
Q 1334 3681 1139 3212 
Q 944 2744 944 2047 
Q 944 1472 1128 1050 
Q 1313 628 1683 403 
Q 2053 178 2528 178 
Q 2941 178 3256 354 
Q 3572 531 3950 1056 
L 4047 994 
Q 3728 428 3303 165 
Q 2878 -97 2294 -97 
Q 1241 -97 663 684 
Q 231 1266 231 2053 
Q 231 2688 515 3219 
Q 800 3750 1298 4042 
Q 1797 4334 2388 4334 
Q 2847 4334 3294 4109 
Q 3425 4041 3481 4041 
Q 3566 4041 3628 4100 
Q 3709 4184 3744 4334 
L 3853 4334 
z
" transform="scale(0.015625)"/>
      <path id="TimesNewRomanPSMT-75" d="M 2709 2863 
L 2709 1128 
Q 2709 631 2732 520 
Q 2756 409 2807 365 
Q 2859 322 2928 322 
Q 3025 322 3147 375 
L 3191 266 
L 2334 -88 
L 2194 -88 
L 2194 519 
Q 1825 119 1631 15 
Q 1438 -88 1222 -88 
Q 981 -88 804 51 
Q 628 191 559 409 
Q 491 628 491 1028 
L 491 2306 
Q 491 2509 447 2587 
Q 403 2666 317 2708 
Q 231 2750 6 2747 
L 6 2863 
L 1009 2863 
L 1009 947 
Q 1009 547 1148 422 
Q 1288 297 1484 297 
Q 1619 297 1789 381 
Q 1959 466 2194 703 
L 2194 2325 
Q 2194 2569 2105 2655 
Q 2016 2741 1734 2747 
L 1734 2863 
L 2709 2863 
z
" transform="scale(0.015625)"/>
      <path id="TimesNewRomanPSMT-55" d="M 3053 4122 
L 3053 4238 
L 4553 4238 
L 4553 4122 
L 4394 4122 
Q 4144 4122 4009 3913 
Q 3944 3816 3944 3463 
L 3944 1744 
Q 3944 1106 3817 754 
Q 3691 403 3320 151 
Q 2950 -100 2313 -100 
Q 1619 -100 1259 140 
Q 900 381 750 788 
Q 650 1066 650 1831 
L 650 3488 
Q 650 3878 542 4000 
Q 434 4122 194 4122 
L 34 4122 
L 34 4238 
L 1866 4238 
L 1866 4122 
L 1703 4122 
Q 1441 4122 1328 3956 
Q 1250 3844 1250 3488 
L 1250 1641 
Q 1250 1394 1295 1075 
Q 1341 756 1459 578 
Q 1578 400 1801 284 
Q 2025 169 2350 169 
Q 2766 169 3094 350 
Q 3422 531 3542 814 
Q 3663 1097 3663 1772 
L 3663 3488 
Q 3663 3884 3575 3984 
Q 3453 4122 3213 4122 
L 3053 4122 
z
" transform="scale(0.015625)"/>
      <path id="TimesNewRomanPSMT-41" d="M 2928 1419 
L 1288 1419 
L 1000 750 
Q 894 503 894 381 
Q 894 284 986 211 
Q 1078 138 1384 116 
L 1384 0 
L 50 0 
L 50 116 
Q 316 163 394 238 
Q 553 388 747 847 
L 2238 4334 
L 2347 4334 
L 3822 809 
Q 4000 384 4145 257 
Q 4291 131 4550 116 
L 4550 0 
L 2878 0 
L 2878 116 
Q 3131 128 3220 200 
Q 3309 272 3309 375 
Q 3309 513 3184 809 
L 2928 1419 
z
M 2841 1650 
L 2122 3363 
L 1384 1650 
L 2841 1650 
z
" transform="scale(0.015625)"/>
      <path id="TimesNewRomanPSMT-56" d="M 4544 4238 
L 4544 4122 
Q 4319 4081 4203 3978 
Q 4038 3825 3909 3509 
L 2431 -97 
L 2316 -97 
L 728 3556 
Q 606 3838 556 3900 
Q 478 3997 364 4051 
Q 250 4106 56 4122 
L 56 4238 
L 1788 4238 
L 1788 4122 
Q 1494 4094 1406 4022 
Q 1319 3950 1319 3838 
Q 1319 3681 1463 3350 
L 2541 866 
L 3541 3319 
Q 3688 3681 3688 3822 
Q 3688 3913 3597 3995 
Q 3506 4078 3291 4113 
Q 3275 4116 3238 4122 
L 3238 4238 
L 4544 4238 
z
" transform="scale(0.015625)"/>
     </defs>
     <use xlink:href="#TimesNewRomanPSMT-43"/>
     <use xlink:href="#TimesNewRomanPSMT-75" transform="translate(66.699219 0)"/>
     <use xlink:href="#TimesNewRomanPSMT-72" transform="translate(116.699219 0)"/>
     <use xlink:href="#TimesNewRomanPSMT-72" transform="translate(150 0)"/>
     <use xlink:href="#TimesNewRomanPSMT-65" transform="translate(183.300781 0)"/>
     <use xlink:href="#TimesNewRomanPSMT-6e" transform="translate(227.685547 0)"/>
     <use xlink:href="#TimesNewRomanPSMT-74" transform="translate(277.685547 0)"/>
     <use xlink:href="#TimesNewRomanPSMT-20" transform="translate(305.46875 0)"/>
     <use xlink:href="#TimesNewRomanPSMT-55" transform="translate(330.46875 0)"/>
     <use xlink:href="#TimesNewRomanPSMT-41" transform="translate(402.685547 0)"/>
     <use xlink:href="#TimesNewRomanPSMT-56" transform="translate(462.027344 0)"/>
     <use xlink:href="#TimesNewRomanPSMT-20" transform="translate(532.494141 0)"/>
     <use xlink:href="#TimesNewRomanPSMT-28" transform="translate(557.494141 0)"/>
     <use xlink:href="#TimesNewRomanPSMT-70" transform="translate(590.794922 0)"/>
     <use xlink:href="#TimesNewRomanPSMT-6f" transform="translate(640.794922 0)"/>
     <use xlink:href="#TimesNewRomanPSMT-69" transform="translate(690.794922 0)"/>
     <use xlink:href="#TimesNewRomanPSMT-6e" transform="translate(718.578125 0)"/>
     <use xlink:href="#TimesNewRomanPSMT-74" transform="translate(768.578125 0)"/>
     <use xlink:href="#TimesNewRomanPSMT-20" transform="translate(796.361328 0)"/>
     <use xlink:href="#TimesNewRomanPSMT-41" transform="translate(815.861328 0)"/>
     <use xlink:href="#TimesNewRomanPSMT-29" transform="translate(888.078125 0)"/>
    </g>
    <!-- pose toward to point D -->
    <g transform="translate(270.878336 167.492918) scale(0.16 -0.16)">
     <defs>
      <path id="TimesNewRomanPSMT-73" d="M 2050 2947 
L 2050 1972 
L 1947 1972 
Q 1828 2431 1642 2597 
Q 1456 2763 1169 2763 
Q 950 2763 815 2647 
Q 681 2531 681 2391 
Q 681 2216 781 2091 
Q 878 1963 1175 1819 
L 1631 1597 
Q 2266 1288 2266 781 
Q 2266 391 1970 151 
Q 1675 -88 1309 -88 
Q 1047 -88 709 6 
Q 606 38 541 38 
Q 469 38 428 -44 
L 325 -44 
L 325 978 
L 428 978 
Q 516 541 762 319 
Q 1009 97 1316 97 
Q 1531 97 1667 223 
Q 1803 350 1803 528 
Q 1803 744 1651 891 
Q 1500 1038 1047 1263 
Q 594 1488 453 1669 
Q 313 1847 313 2119 
Q 313 2472 555 2709 
Q 797 2947 1181 2947 
Q 1350 2947 1591 2875 
Q 1750 2828 1803 2828 
Q 1853 2828 1881 2850 
Q 1909 2872 1947 2947 
L 2050 2947 
z
" transform="scale(0.015625)"/>
      <path id="TimesNewRomanPSMT-44" d="M 109 0 
L 109 116 
L 269 116 
Q 538 116 650 288 
Q 719 391 719 750 
L 719 3488 
Q 719 3884 631 3984 
Q 509 4122 269 4122 
L 109 4122 
L 109 4238 
L 1834 4238 
Q 2784 4238 3279 4022 
Q 3775 3806 4076 3303 
Q 4378 2800 4378 2141 
Q 4378 1256 3841 663 
Q 3238 0 2003 0 
L 109 0 
z
M 1319 306 
Q 1716 219 1984 219 
Q 2709 219 3187 728 
Q 3666 1238 3666 2109 
Q 3666 2988 3187 3494 
Q 2709 4000 1959 4000 
Q 1678 4000 1319 3909 
L 1319 306 
z
" transform="scale(0.015625)"/>
     </defs>
     <use xlink:href="#TimesNewRomanPSMT-70"/>
     <use xlink:href="#TimesNewRomanPSMT-6f" transform="translate(50 0)"/>
     <use xlink:href="#TimesNewRomanPSMT-73" transform="translate(100 0)"/>
     <use xlink:href="#TimesNewRomanPSMT-65" transform="translate(138.916016 0)"/>
     <use xlink:href="#TimesNewRomanPSMT-20" transform="translate(183.300781 0)"/>
     <use xlink:href="#TimesNewRomanPSMT-74" transform="translate(208.300781 0)"/>
     <use xlink:href="#TimesNewRomanPSMT-6f" transform="translate(236.083984 0)"/>
     <use xlink:href="#TimesNewRomanPSMT-77" transform="translate(286.083984 0)"/>
     <use xlink:href="#TimesNewRomanPSMT-61" transform="translate(358.300781 0)"/>
     <use xlink:href="#TimesNewRomanPSMT-72" transform="translate(402.685547 0)"/>
     <use xlink:href="#TimesNewRomanPSMT-64" transform="translate(435.986328 0)"/>
     <use xlink:href="#TimesNewRomanPSMT-20" transform="translate(485.986328 0)"/>
     <use xlink:href="#TimesNewRomanPSMT-74" transform="translate(510.986328 0)"/>
     <use xlink:href="#TimesNewRomanPSMT-6f" transform="translate(538.769531 0)"/>
     <use xlink:href="#TimesNewRomanPSMT-20" transform="translate(588.769531 0)"/>
     <use xlink:href="#TimesNewRomanPSMT-70" transform="translate(613.769531 0)"/>
     <use xlink:href="#TimesNewRomanPSMT-6f" transform="translate(663.769531 0)"/>
     <use xlink:href="#TimesNewRomanPSMT-69" transform="translate(713.769531 0)"/>
     <use xlink:href="#TimesNewRomanPSMT-6e" transform="translate(741.552734 0)"/>
     <use xlink:href="#TimesNewRomanPSMT-74" transform="translate(791.552734 0)"/>
     <use xlink:href="#TimesNewRomanPSMT-20" transform="translate(819.335938 0)"/>
     <use xlink:href="#TimesNewRomanPSMT-44" transform="translate(844.335938 0)"/>
    </g>
   </g>
   <g id="text_3">
    <!-- Tracking well in here (point A') -->
    <g transform="translate(6.592 97.494013) scale(0.16 -0.16)">
     <defs>
      <path id="TimesNewRomanPSMT-54" d="M 3703 4238 
L 3750 3244 
L 3631 3244 
Q 3597 3506 3538 3619 
Q 3441 3800 3280 3886 
Q 3119 3972 2856 3972 
L 2259 3972 
L 2259 734 
Q 2259 344 2344 247 
Q 2463 116 2709 116 
L 2856 116 
L 2856 0 
L 1059 0 
L 1059 116 
L 1209 116 
Q 1478 116 1591 278 
Q 1659 378 1659 734 
L 1659 3972 
L 1150 3972 
Q 853 3972 728 3928 
Q 566 3869 450 3700 
Q 334 3531 313 3244 
L 194 3244 
L 244 4238 
L 3703 4238 
z
" transform="scale(0.015625)"/>
      <path id="TimesNewRomanPSMT-6b" d="M 1047 4444 
L 1047 1597 
L 1775 2259 
Q 2006 2472 2044 2528 
Q 2069 2566 2069 2603 
Q 2069 2666 2017 2711 
Q 1966 2756 1847 2763 
L 1847 2863 
L 3091 2863 
L 3091 2763 
Q 2834 2756 2664 2684 
Q 2494 2613 2291 2428 
L 1556 1750 
L 2291 822 
Q 2597 438 2703 334 
Q 2853 188 2966 144 
Q 3044 113 3238 113 
L 3238 0 
L 1847 0 
L 1847 113 
Q 1966 116 2008 148 
Q 2050 181 2050 241 
Q 2050 313 1925 472 
L 1047 1594 
L 1047 644 
Q 1047 366 1086 278 
Q 1125 191 1197 153 
Q 1269 116 1509 113 
L 1509 0 
L 53 0 
L 53 113 
Q 272 113 381 166 
Q 447 200 481 272 
Q 528 375 528 628 
L 528 3234 
Q 528 3731 506 3842 
Q 484 3953 434 3995 
Q 384 4038 303 4038 
Q 238 4038 106 3984 
L 53 4094 
L 903 4444 
L 1047 4444 
z
" transform="scale(0.015625)"/>
      <path id="TimesNewRomanPSMT-67" d="M 966 1044 
Q 703 1172 562 1401 
Q 422 1631 422 1909 
Q 422 2334 742 2640 
Q 1063 2947 1563 2947 
Q 1972 2947 2272 2747 
L 2878 2747 
Q 3013 2747 3034 2739 
Q 3056 2731 3066 2713 
Q 3084 2684 3084 2613 
Q 3084 2531 3069 2500 
Q 3059 2484 3036 2475 
Q 3013 2466 2878 2466 
L 2506 2466 
Q 2681 2241 2681 1891 
Q 2681 1491 2375 1206 
Q 2069 922 1553 922 
Q 1341 922 1119 984 
Q 981 866 932 777 
Q 884 688 884 625 
Q 884 572 936 522 
Q 988 472 1138 450 
Q 1225 438 1575 428 
Q 2219 413 2409 384 
Q 2700 344 2873 169 
Q 3047 -6 3047 -263 
Q 3047 -616 2716 -925 
Q 2228 -1381 1444 -1381 
Q 841 -1381 425 -1109 
Q 191 -953 191 -784 
Q 191 -709 225 -634 
Q 278 -519 444 -313 
Q 466 -284 763 25 
Q 600 122 533 198 
Q 466 275 466 372 
Q 466 481 555 628 
Q 644 775 966 1044 
z
M 1509 2797 
Q 1278 2797 1122 2612 
Q 966 2428 966 2047 
Q 966 1553 1178 1281 
Q 1341 1075 1591 1075 
Q 1828 1075 1981 1253 
Q 2134 1431 2134 1813 
Q 2134 2309 1919 2591 
Q 1759 2797 1509 2797 
z
M 934 0 
Q 788 -159 713 -296 
Q 638 -434 638 -550 
Q 638 -700 819 -813 
Q 1131 -1006 1722 -1006 
Q 2284 -1006 2551 -807 
Q 2819 -609 2819 -384 
Q 2819 -222 2659 -153 
Q 2497 -84 2016 -72 
Q 1313 -53 934 0 
z
" transform="scale(0.015625)"/>
      <path id="TimesNewRomanPSMT-6c" d="M 1184 4444 
L 1184 647 
Q 1184 378 1223 290 
Q 1263 203 1344 158 
Q 1425 113 1647 113 
L 1647 0 
L 244 0 
L 244 113 
Q 441 113 512 153 
Q 584 194 625 287 
Q 666 381 666 647 
L 666 3247 
Q 666 3731 644 3842 
Q 622 3953 573 3993 
Q 525 4034 450 4034 
Q 369 4034 244 3984 
L 191 4094 
L 1044 4444 
L 1184 4444 
z
" transform="scale(0.015625)"/>
      <path id="TimesNewRomanPSMT-68" d="M 1041 4444 
L 1041 2350 
Q 1388 2731 1591 2839 
Q 1794 2947 1997 2947 
Q 2241 2947 2416 2812 
Q 2591 2678 2675 2391 
Q 2734 2191 2734 1659 
L 2734 647 
Q 2734 375 2778 275 
Q 2809 200 2884 156 
Q 2959 113 3159 113 
L 3159 0 
L 1753 0 
L 1753 113 
L 1819 113 
Q 2019 113 2097 173 
Q 2175 234 2206 353 
Q 2216 403 2216 647 
L 2216 1659 
Q 2216 2128 2167 2275 
Q 2119 2422 2012 2495 
Q 1906 2569 1756 2569 
Q 1603 2569 1437 2487 
Q 1272 2406 1041 2159 
L 1041 647 
Q 1041 353 1073 281 
Q 1106 209 1195 161 
Q 1284 113 1503 113 
L 1503 0 
L 84 0 
L 84 113 
Q 275 113 384 172 
Q 447 203 484 290 
Q 522 378 522 647 
L 522 3238 
Q 522 3728 498 3840 
Q 475 3953 426 3993 
Q 378 4034 297 4034 
Q 231 4034 84 3984 
L 41 4094 
L 897 4444 
L 1041 4444 
z
" transform="scale(0.015625)"/>
      <path id="TimesNewRomanPSMT-27" d="M 494 2509 
L 325 3434 
Q 253 3819 253 3953 
Q 253 4153 334 4243 
Q 416 4334 556 4334 
Q 697 4334 789 4242 
Q 881 4150 881 4000 
Q 881 3884 800 3431 
L 631 2509 
L 494 2509 
z
" transform="scale(0.015625)"/>
     </defs>
     <use xlink:href="#TimesNewRomanPSMT-54"/>
     <use xlink:href="#TimesNewRomanPSMT-72" transform="translate(57.583984 0)"/>
     <use xlink:href="#TimesNewRomanPSMT-61" transform="translate(90.884766 0)"/>
     <use xlink:href="#TimesNewRomanPSMT-63" transform="translate(135.269531 0)"/>
     <use xlink:href="#TimesNewRomanPSMT-6b" transform="translate(179.654297 0)"/>
     <use xlink:href="#TimesNewRomanPSMT-69" transform="translate(229.654297 0)"/>
     <use xlink:href="#TimesNewRomanPSMT-6e" transform="translate(257.4375 0)"/>
     <use xlink:href="#TimesNewRomanPSMT-67" transform="translate(307.4375 0)"/>
     <use xlink:href="#TimesNewRomanPSMT-20" transform="translate(357.4375 0)"/>
     <use xlink:href="#TimesNewRomanPSMT-77" transform="translate(382.4375 0)"/>
     <use xlink:href="#TimesNewRomanPSMT-65" transform="translate(454.654297 0)"/>
     <use xlink:href="#TimesNewRomanPSMT-6c" transform="translate(499.039062 0)"/>
     <use xlink:href="#TimesNewRomanPSMT-6c" transform="translate(526.822266 0)"/>
     <use xlink:href="#TimesNewRomanPSMT-20" transform="translate(554.605469 0)"/>
     <use xlink:href="#TimesNewRomanPSMT-69" transform="translate(579.605469 0)"/>
     <use xlink:href="#TimesNewRomanPSMT-6e" transform="translate(607.388672 0)"/>
     <use xlink:href="#TimesNewRomanPSMT-20" transform="translate(657.388672 0)"/>
     <use xlink:href="#TimesNewRomanPSMT-68" transform="translate(682.388672 0)"/>
     <use xlink:href="#TimesNewRomanPSMT-65" transform="translate(732.388672 0)"/>
     <use xlink:href="#TimesNewRomanPSMT-72" transform="translate(776.773438 0)"/>
     <use xlink:href="#TimesNewRomanPSMT-65" transform="translate(810.074219 0)"/>
     <use xlink:href="#TimesNewRomanPSMT-20" transform="translate(854.458984 0)"/>
     <use xlink:href="#TimesNewRomanPSMT-28" transform="translate(879.458984 0)"/>
     <use xlink:href="#TimesNewRomanPSMT-70" transform="translate(912.759766 0)"/>
     <use xlink:href="#TimesNewRomanPSMT-6f" transform="translate(962.759766 0)"/>
     <use xlink:href="#TimesNewRomanPSMT-69" transform="translate(1012.759766 0)"/>
     <use xlink:href="#TimesNewRomanPSMT-6e" transform="translate(1040.542969 0)"/>
     <use xlink:href="#TimesNewRomanPSMT-74" transform="translate(1090.542969 0)"/>
     <use xlink:href="#TimesNewRomanPSMT-20" transform="translate(1118.326172 0)"/>
     <use xlink:href="#TimesNewRomanPSMT-41" transform="translate(1137.826172 0)"/>
     <use xlink:href="#TimesNewRomanPSMT-27" transform="translate(1210.042969 0)"/>
     <use xlink:href="#TimesNewRomanPSMT-29" transform="translate(1228.060547 0)"/>
    </g>
    <!-- pose toward to point O -->
    <g transform="translate(34.17575 114.278513) scale(0.16 -0.16)">
     <use xlink:href="#TimesNewRomanPSMT-70"/>
     <use xlink:href="#TimesNewRomanPSMT-6f" transform="translate(50 0)"/>
     <use xlink:href="#TimesNewRomanPSMT-73" transform="translate(100 0)"/>
     <use xlink:href="#TimesNewRomanPSMT-65" transform="translate(138.916016 0)"/>
     <use xlink:href="#TimesNewRomanPSMT-20" transform="translate(183.300781 0)"/>
     <use xlink:href="#TimesNewRomanPSMT-74" transform="translate(208.300781 0)"/>
     <use xlink:href="#TimesNewRomanPSMT-6f" transform="translate(236.083984 0)"/>
     <use xlink:href="#TimesNewRomanPSMT-77" transform="translate(286.083984 0)"/>
     <use xlink:href="#TimesNewRomanPSMT-61" transform="translate(358.300781 0)"/>
     <use xlink:href="#TimesNewRomanPSMT-72" transform="translate(402.685547 0)"/>
     <use xlink:href="#TimesNewRomanPSMT-64" transform="translate(435.986328 0)"/>
     <use xlink:href="#TimesNewRomanPSMT-20" transform="translate(485.986328 0)"/>
     <use xlink:href="#TimesNewRomanPSMT-74" transform="translate(510.986328 0)"/>
     <use xlink:href="#TimesNewRomanPSMT-6f" transform="translate(538.769531 0)"/>
     <use xlink:href="#TimesNewRomanPSMT-20" transform="translate(588.769531 0)"/>
     <use xlink:href="#TimesNewRomanPSMT-70" transform="translate(613.769531 0)"/>
     <use xlink:href="#TimesNewRomanPSMT-6f" transform="translate(663.769531 0)"/>
     <use xlink:href="#TimesNewRomanPSMT-69" transform="translate(713.769531 0)"/>
     <use xlink:href="#TimesNewRomanPSMT-6e" transform="translate(741.552734 0)"/>
     <use xlink:href="#TimesNewRomanPSMT-74" transform="translate(791.552734 0)"/>
     <use xlink:href="#TimesNewRomanPSMT-20" transform="translate(819.335938 0)"/>
     <use xlink:href="#TimesNewRomanPSMT-4f" transform="translate(844.335938 0)"/>
    </g>
   </g>
   <g id="text_4">
    <!-- G -->
    <g transform="translate(234.998201 111.517246) scale(0.14 -0.14)">
     <defs>
      <path id="TimesNewRomanPSMT-47" d="M 3928 4334 
L 4038 2997 
L 3928 2997 
Q 3763 3497 3500 3750 
Q 3122 4116 2528 4116 
Q 1719 4116 1297 3475 
Q 944 2934 944 2188 
Q 944 1581 1178 1081 
Q 1413 581 1792 348 
Q 2172 116 2572 116 
Q 2806 116 3025 175 
Q 3244 234 3447 350 
L 3447 1575 
Q 3447 1894 3398 1992 
Q 3350 2091 3248 2142 
Q 3147 2194 2891 2194 
L 2891 2313 
L 4531 2313 
L 4531 2194 
L 4453 2194 
Q 4209 2194 4119 2031 
Q 4056 1916 4056 1575 
L 4056 278 
Q 3697 84 3347 -6 
Q 2997 -97 2569 -97 
Q 1341 -97 703 691 
Q 225 1281 225 2053 
Q 225 2613 494 3125 
Q 813 3734 1369 4063 
Q 1834 4334 2469 4334 
Q 2700 4334 2889 4296 
Q 3078 4259 3425 4131 
Q 3600 4066 3659 4066 
Q 3719 4066 3761 4120 
Q 3803 4175 3813 4334 
L 3928 4334 
z
" transform="scale(0.015625)"/>
     </defs>
     <use xlink:href="#TimesNewRomanPSMT-47"/>
    </g>
   </g>
   <g id="text_5">
    <!-- O -->
    <g transform="translate(247.200805 300.100146) scale(0.14 -0.14)">
     <use xlink:href="#TimesNewRomanPSMT-4f"/>
    </g>
   </g>
   <g id="text_6">
    <!-- A' -->
    <g transform="translate(73.361078 165.167818) scale(0.14 -0.14)">
     <use xlink:href="#TimesNewRomanPSMT-41"/>
     <use xlink:href="#TimesNewRomanPSMT-27" transform="translate(72.216797 0)"/>
    </g>
   </g>
   <g id="text_7">
    <!-- B -->
    <g transform="translate(92.774511 334.791849) scale(0.14 -0.14)">
     <defs>
      <path id="TimesNewRomanPSMT-42" d="M 2956 2163 
Q 3397 2069 3616 1863 
Q 3919 1575 3919 1159 
Q 3919 844 3719 555 
Q 3519 266 3170 133 
Q 2822 0 2106 0 
L 106 0 
L 106 116 
L 266 116 
Q 531 116 647 284 
Q 719 394 719 750 
L 719 3488 
Q 719 3881 628 3984 
Q 506 4122 266 4122 
L 106 4122 
L 106 4238 
L 1938 4238 
Q 2450 4238 2759 4163 
Q 3228 4050 3475 3764 
Q 3722 3478 3722 3106 
Q 3722 2788 3528 2536 
Q 3334 2284 2956 2163 
z
M 1319 2331 
Q 1434 2309 1582 2298 
Q 1731 2288 1909 2288 
Q 2366 2288 2595 2386 
Q 2825 2484 2947 2687 
Q 3069 2891 3069 3131 
Q 3069 3503 2766 3765 
Q 2463 4028 1881 4028 
Q 1569 4028 1319 3959 
L 1319 2331 
z
M 1319 306 
Q 1681 222 2034 222 
Q 2600 222 2897 476 
Q 3194 731 3194 1106 
Q 3194 1353 3059 1581 
Q 2925 1809 2622 1940 
Q 2319 2072 1872 2072 
Q 1678 2072 1540 2065 
Q 1403 2059 1319 2044 
L 1319 306 
z
" transform="scale(0.015625)"/>
     </defs>
     <use xlink:href="#TimesNewRomanPSMT-42"/>
    </g>
   </g>
   <g id="text_8">
    <!-- D -->
    <g transform="translate(205.061649 308.298145) scale(0.14 -0.14)">
     <use xlink:href="#TimesNewRomanPSMT-44"/>
    </g>
   </g>
   <g id="text_9">
    <!-- E -->
    <g transform="translate(273.039828 372.008427) scale(0.14 -0.14)">
     <defs>
      <path id="TimesNewRomanPSMT-45" d="M 1338 4006 
L 1338 2331 
L 2269 2331 
Q 2631 2331 2753 2441 
Q 2916 2584 2934 2947 
L 3050 2947 
L 3050 1472 
L 2934 1472 
Q 2891 1781 2847 1869 
Q 2791 1978 2662 2040 
Q 2534 2103 2269 2103 
L 1338 2103 
L 1338 706 
Q 1338 425 1363 364 
Q 1388 303 1450 267 
Q 1513 231 1688 231 
L 2406 231 
Q 2766 231 2928 281 
Q 3091 331 3241 478 
Q 3434 672 3638 1063 
L 3763 1063 
L 3397 0 
L 131 0 
L 131 116 
L 281 116 
Q 431 116 566 188 
Q 666 238 702 338 
Q 738 438 738 747 
L 738 3500 
Q 738 3903 656 3997 
Q 544 4122 281 4122 
L 131 4122 
L 131 4238 
L 3397 4238 
L 3444 3309 
L 3322 3309 
Q 3256 3644 3176 3769 
Q 3097 3894 2941 3959 
Q 2816 4006 2500 4006 
L 1338 4006 
z
" transform="scale(0.015625)"/>
     </defs>
     <use xlink:href="#TimesNewRomanPSMT-45"/>
    </g>
   </g>
   <g id="text_10">
    <!-- F -->
    <g transform="translate(374.354248 323.568588) scale(0.14 -0.14)">
     <use xlink:href="#TimesNewRomanPSMT-46"/>
    </g>
   </g>
   <g id="text_11">
    <!-- H -->
    <g transform="translate(198.391044 172.23693) scale(0.14 -0.14)">
     <defs>
      <path id="TimesNewRomanPSMT-48" d="M 1316 2272 
L 3284 2272 
L 3284 3484 
Q 3284 3809 3244 3913 
Q 3213 3991 3113 4047 
Q 2978 4122 2828 4122 
L 2678 4122 
L 2678 4238 
L 4491 4238 
L 4491 4122 
L 4341 4122 
Q 4191 4122 4056 4050 
Q 3956 4000 3920 3898 
Q 3884 3797 3884 3484 
L 3884 750 
Q 3884 428 3925 325 
Q 3956 247 4053 191 
Q 4191 116 4341 116 
L 4491 116 
L 4491 0 
L 2678 0 
L 2678 116 
L 2828 116 
Q 3088 116 3206 269 
Q 3284 369 3284 750 
L 3284 2041 
L 1316 2041 
L 1316 750 
Q 1316 428 1356 325 
Q 1388 247 1488 191 
Q 1622 116 1772 116 
L 1925 116 
L 1925 0 
L 109 0 
L 109 116 
L 259 116 
Q 522 116 641 269 
Q 716 369 716 750 
L 716 3484 
Q 716 3809 675 3913 
Q 644 3991 547 4047 
Q 409 4122 259 4122 
L 109 4122 
L 109 4238 
L 1925 4238 
L 1925 4122 
L 1772 4122 
Q 1622 4122 1488 4050 
Q 1391 4000 1353 3898 
Q 1316 3797 1316 3484 
L 1316 2272 
z
" transform="scale(0.015625)"/>
     </defs>
     <use xlink:href="#TimesNewRomanPSMT-48"/>
    </g>
   </g>
   <g id="text_12">
    <!-- C -->
    <g transform="translate(148.462516 337.956054) scale(0.14 -0.14)">
     <use xlink:href="#TimesNewRomanPSMT-43"/>
    </g>
   </g>
   <g id="text_13">
    <!-- A -->
    <g transform="translate(297.491047 205.584844) scale(0.14 -0.14)">
     <use xlink:href="#TimesNewRomanPSMT-41"/>
    </g>
   </g>
   <g id="Line3DCollection_1">
    <path d="M 247.575687 54.669831 
L 247.458861 273.450474 
" clip-path="url(#p30c751b022)" style="fill: none; stroke: #000000; stroke-opacity: 0.5; stroke-width: 1.5"/>
    <path d="M 247.575687 54.669831 
L 250.211767 64.50254 
" clip-path="url(#p30c751b022)" style="fill: none; stroke: #000000; stroke-opacity: 0.5; stroke-width: 1.5"/>
    <path d="M 247.575687 54.669831 
L 244.92042 66.618673 
" clip-path="url(#p30c751b022)" style="fill: none; stroke: #000000; stroke-opacity: 0.5; stroke-width: 1.5"/>
   </g>
   <g id="Line3DCollection_2">
    <path d="M 457.389527 326.008758 
L 247.458861 273.450474 
" clip-path="url(#p30c751b022)" style="fill: none; stroke: #000000; stroke-opacity: 0.5; stroke-width: 1.5"/>
    <path d="M 457.389527 326.008758 
L 446.600108 327.24291 
" clip-path="url(#p30c751b022)" style="fill: none; stroke: #000000; stroke-opacity: 0.5; stroke-width: 1.5"/>
    <path d="M 457.389527 326.008758 
L 446.835005 319.426374 
" clip-path="url(#p30c751b022)" style="fill: none; stroke: #000000; stroke-opacity: 0.5; stroke-width: 1.5"/>
   </g>
   <g id="Line3DCollection_3">
    <path d="M 25.273052 387.238134 
L 247.458861 273.450474 
" clip-path="url(#p30c751b022)" style="fill: none; stroke: #000000; stroke-opacity: 0.5; stroke-width: 1.5"/>
    <path d="M 25.273052 387.238134 
L 37.314433 384.123508 
" clip-path="url(#p30c751b022)" style="fill: none; stroke: #000000; stroke-opacity: 0.5; stroke-width: 1.5"/>
    <path d="M 25.273052 387.238134 
L 37.128871 378.111583 
" clip-path="url(#p30c751b022)" style="fill: none; stroke: #000000; stroke-opacity: 0.5; stroke-width: 1.5"/>
   </g>
   <g id="Poly3DCollection_2">
    <path d="M 281.790876 174.391982 
L 292.217344 176.708789 
L 292.110752 191.90362 
L 281.707478 189.550671 
z
" clip-path="url(#p30c751b022)" style="fill: #ffc0cb; fill-opacity: 0.7; stroke: #000000; stroke-width: 2"/>
    <path d="M 281.707478 189.550671 
L 267.877271 196.128724 
L 267.930624 180.869063 
L 281.790876 174.391982 
z
" clip-path="url(#p30c751b022)" style="fill: #ffc0cb; fill-opacity: 0.7; stroke: #000000; stroke-width: 2"/>
    <path d="M 281.707478 189.550671 
L 267.877271 196.128724 
L 278.321979 198.517656 
L 292.110752 191.90362 
z
" clip-path="url(#p30c751b022)" style="fill: #ffc0cb; fill-opacity: 0.7; stroke: #000000; stroke-width: 2"/>
    <path d="M 281.790876 174.391982 
L 267.930624 180.869063 
L 278.398713 183.221379 
L 292.217344 176.708789 
z
" clip-path="url(#p30c751b022)" style="fill: #ffc0cb; fill-opacity: 0.7; stroke: #000000; stroke-width: 2"/>
    <path d="M 278.321979 198.517656 
L 292.110752 191.90362 
L 292.217344 176.708789 
L 278.398713 183.221379 
z
" clip-path="url(#p30c751b022)" style="fill: #ffc0cb; fill-opacity: 0.7; stroke: #000000; stroke-width: 2"/>
    <path d="M 267.877271 196.128724 
L 278.321979 198.517656 
L 278.398713 183.221379 
L 267.930624 180.869063 
z
" clip-path="url(#p30c751b022)" style="fill: #ffc0cb; fill-opacity: 0.7; stroke: #000000; stroke-width: 2"/>
   </g>
  </g>
 </g>
 <defs>
  <clipPath id="p30c751b022">
   <rect x="7.2" y="7.2" width="460.8" height="460.8"/>
  </clipPath>
 </defs>
</svg>
